<svg width="42" height="14" viewBox="0 0 42 14" xmlns="http://www.w3.org/2000/svg">
  <path d="M17.5 2.1L14.7 12H11.8L9.83 4.24c-.11-.44-.2-.6-.53-.78C8.37 3.12 6.98 2.7 5.5 2.33l.08-.23h4.9c.67 0 1.26.43 1.4 1.1l1.2 6.14 2.2-7.25h2.22zm10.66 6.58c.01-2.57-3.56-2.71-3.54-3.86.01-.35.34-.72 1.06-.82.36-.05 1.37-.09 2.5.44l.44-2.06c-.61-.22-1.4-.43-2.39-.43-2.52 0-4.29 1.34-4.31 3.25-.02 1.42 1.27 2.21 2.24 2.68 1 .48 1.33.79 1.33 1.22-.01.66-.8.96-1.53.97-1.29.02-2.02-.34-2.6-.61l-.46 2.13c.59.27 1.67.52 2.8.53 2.65 0 4.38-1.32 4.4-3.44zm4.92 3.32h2.51l-2.19-9.9h-2.33c-.52 0-.96.3-1.15.77L25.2 12h2.75l.38-1.58h3.56l.25 1.58zm-3.49-3.56l1.1-4.6 1.1 4.6h-2.2zM8.2 2.1L5.52 12H2.5L0.4 2.1h2.9l1.27 6.48L5.8 2.1h2.4z" fill="#1A1F71"></path>
</svg>
